<?xml version="1.0" standalone="no"?>
<!DOCTYPE svg PUBLIC "-//W3C//DTD SVG 20010904//EN"
 "http://www.w3.org/TR/2001/REC-SVG-20010904/DTD/svg10.dtd">
<svg version="1.0" xmlns="http://www.w3.org/2000/svg"
 width="700.000000pt" height="700.000000pt" viewBox="0 0 700.000000 700.000000"
 preserveAspectRatio="xMidYMid meet">
<metadata>
Created by potrace 1.14, written by Peter Selinger 2001-2017
</metadata>
<g transform="translate(0.000000,700.000000) scale(0.100000,-0.100000)"
fill="#000000" stroke="none">
<path d="M3278 6995 c-1 -1 -42 -5 -89 -9 -47 -4 -95 -8 -105 -10 -10 -2 -41
-7 -69 -10 -333 -43 -716 -159 -1030 -312 -180 -87 -448 -247 -555 -331 -8 -6
-51 -40 -95 -74 -340 -264 -650 -624 -875 -1014 -47 -81 -170 -327 -170 -339
0 -3 -11 -29 -24 -58 -40 -91 -113 -300 -140 -408 -4 -14 -13 -51 -22 -82 -8
-32 -17 -68 -19 -80 -3 -13 -11 -57 -20 -98 -22 -115 -30 -160 -41 -255 -26
-230 -26 -667 1 -826 2 -13 6 -46 9 -74 9 -78 23 -156 51 -285 31 -142 109
-393 175 -555 49 -123 173 -370 235 -468 30 -49 55 -90 55 -93 0 -3 4 -10 10
-17 5 -7 46 -64 91 -126 367 -521 882 -935 1478 -1190 270 -116 598 -208 880
-247 25 -3 57 -7 70 -10 167 -26 681 -25 843 1 13 2 46 7 73 10 72 10 86 12
120 19 17 3 44 8 60 11 723 137 1450 551 1930 1099 33 38 67 76 75 85 28 30
147 186 202 266 107 154 230 373 305 540 63 141 71 162 106 260 58 165 100
310 123 420 17 81 54 301 59 350 4 33 9 71 11 85 9 47 11 525 4 605 -15 157
-21 210 -25 225 -2 8 -7 35 -10 60 -17 129 -80 384 -136 552 -351 1044 -1180
1869 -2227 2213 -162 54 -405 113 -532 130 -19 3 -46 7 -60 10 -13 2 -52 7
-86 11 -33 3 -74 8 -90 10 -32 5 -540 14 -546 9z m497 -1930 c621 -65 1038
-541 1114 -1270 16 -152 5 -502 -16 -525 -3 -3 -458 -5 -1011 -5 l-1007 -1 -3
-28 c-5 -39 14 -148 39 -224 97 -295 371 -493 734 -529 114 -12 410 -5 515 11
14 2 48 7 75 11 74 10 240 50 324 79 41 14 77 23 79 21 4 -4 38 -161 48 -225
3 -19 8 -38 10 -42 2 -3 11 -39 19 -80 14 -74 20 -101 31 -150 5 -24 1 -29
-33 -43 -63 -27 -172 -62 -248 -81 -92 -22 -189 -43 -225 -49 -67 -10 -97 -15
-127 -19 -87 -14 -211 -21 -388 -21 -172 0 -348 10 -365 20 -3 2 -22 6 -43 9
-283 45 -576 193 -773 390 -63 64 -156 182 -193 246 -88 152 -159 349 -191
533 -39 226 -32 541 17 762 4 17 8 35 9 40 15 70 53 189 86 270 260 636 830
974 1523 900z"/>
<path d="M3415 4535 c-235 -50 -409 -213 -509 -478 -23 -61 -56 -200 -56 -236
0 -16 47 -17 666 -17 l665 0 -6 85 c-11 154 -60 306 -138 421 -124 184 -379
276 -622 225z"/>
</g>
</svg>
